<svg width="300" height="300" viewBox="0 0 300 300" fill="none" xmlns="http://www.w3.org/2000/svg">
<g clip-path="url(#clip0_8_9)">
<circle cx="150" cy="150" r="150" fill="white"/>
<path fill-rule="evenodd" clip-rule="evenodd" d="M151.603 53.0537C149.463 53.1308 146.503 53.321 144.841 53.488C143.735 53.5992 143.378 53.6371 142.587 53.7273C133.672 54.7433 125.355 56.9255 117.991 60.1811C113.761 62.0513 109.443 64.5158 105.843 67.1147C100.872 70.7039 97.1837 74.2576 94.3047 78.2311C90.565 83.3924 88.3055 89.1526 87.5132 95.545C87.281 97.4178 87.2372 98.2546 87.2364 100.824C87.2356 103.165 87.2544 103.639 87.4128 105.276C88.1105 112.489 90.6277 118.945 94.8909 124.453C96.0341 125.931 97.725 127.685 99.355 129.085C103.36 132.525 108.886 135.908 115.762 139.129C117.922 140.141 122.011 141.884 124.39 142.807C124.934 143.018 125.379 143.202 125.379 143.216C125.379 143.231 125.17 143.321 124.915 143.417C121.725 144.618 116.363 146.914 113.232 148.42C113.012 148.526 112.674 148.689 112.481 148.781C111.135 149.427 108.821 150.604 107.647 151.24C100.829 154.931 95.5283 158.62 91.3163 162.605C89.9938 163.856 87.9686 166.048 87.2169 167.041C87.1435 167.138 86.8227 167.553 86.504 167.963C84.9873 169.915 83.5527 172.076 82.2802 174.325C81.8183 175.141 80.6004 177.595 80.2507 178.414C77.6733 184.45 76.6274 190.634 77.1171 196.944C77.1946 197.943 77.3041 198.975 77.3886 199.506C77.4158 199.677 77.4742 200.05 77.5183 200.334C78.005 203.474 79.0938 207.119 80.4561 210.169C83.6402 217.297 88.7464 223.814 96.0752 230.104C99.0004 232.614 102.322 234.934 105.693 236.821C106.347 237.187 108.909 238.511 109.55 238.814C115.705 241.726 122.61 243.86 130.239 245.208C132.887 245.676 135.544 246.047 138.028 246.296C138.469 246.34 139.055 246.399 139.331 246.427C139.606 246.454 140.125 246.501 140.483 246.53C140.841 246.559 141.258 246.595 141.409 246.609C141.843 246.649 143.984 246.781 145.166 246.841C149.391 247.053 155.07 247.053 159.142 246.841C171.099 246.218 181.546 244.078 191.177 240.279C199.414 237.03 207.473 232.116 213.09 226.916C216.32 223.927 218.809 220.882 220.604 217.724C221.486 216.173 222.419 214.037 222.905 212.455C224.162 208.369 224.343 203.939 223.414 200.019C222.608 196.62 221.057 193.738 218.654 191.18C215.782 188.121 212.441 186.246 208.559 185.512C207.225 185.259 206.326 185.179 204.852 185.179C203.554 185.179 202.882 185.239 201.803 185.455C199.446 185.925 196.96 187.095 194.71 188.795C193.339 189.831 191.66 191.423 191.034 192.283C190.197 193.43 189.078 195.594 188.061 198.031C187.198 200.098 186.709 201.388 185.181 205.64C184.725 206.908 183.708 209.524 183.098 210.997C180.195 218.01 177.515 222.584 174.797 225.169C170.733 229.033 166.074 231.467 160.47 232.653C155.76 233.65 149.86 233.653 144.627 232.66C138.766 231.549 133.468 229.084 128.977 225.378C126.614 223.428 124.187 220.837 122.463 218.425C118.913 213.457 116.529 207.402 115.361 200.386C114.568 195.62 114.301 189.701 114.662 184.884C115.462 174.225 119.372 165.472 126.231 158.986C127.124 158.142 127.462 157.84 128.16 157.265C133.317 153.014 139.502 150.48 146.519 149.744C148.397 149.546 149.122 149.512 151.378 149.515C153.703 149.518 155.07 149.578 157.765 149.794C158.544 149.857 160.889 150.081 161.522 150.153C163.453 150.373 165.02 150.573 167.571 150.925C169.147 151.143 170.189 151.264 172.091 151.453C172.833 151.527 175.749 151.524 176.843 151.448C180.128 151.221 182.462 150.738 184.339 149.897C185.163 149.528 186.239 148.83 186.884 148.247C187.556 147.639 188.084 146.737 188.328 145.779C188.444 145.323 188.46 145.162 188.46 144.433C188.46 143.706 188.444 143.542 188.329 143.094C188.071 142.081 187.525 141.172 186.667 140.327C185.57 139.245 184.488 138.635 182.811 138.151C179.567 137.216 174.11 137.006 167.884 137.576C165.262 137.816 163.696 137.99 161.096 138.33C156.089 138.986 153.325 139.21 149.575 139.266C144.496 139.341 140.648 138.807 136.776 137.488C132.498 136.032 128.984 133.802 125.869 130.568C120.887 125.395 117.974 118.317 117.092 109.236C116.763 105.856 116.715 101.736 116.966 98.5991C117.76 88.6983 121.013 80.8758 126.847 74.8341C129.48 72.1079 132.299 70.0064 135.548 68.3484C140.031 66.0612 144.659 64.8359 150.752 64.3232C151.852 64.2306 156.908 64.2304 157.84 64.3228C161.404 64.6766 163.864 65.1801 166.472 66.089C169.047 66.987 172.13 68.6312 173.719 69.9548C174.61 70.696 176.004 72.2625 177.033 73.6761C179.292 76.7819 181.485 80.5524 184.365 86.2799C185.483 88.5048 186.115 89.6335 187.057 91.0936C190.901 97.0505 195.361 100.245 200.645 100.827C201.343 100.904 203.081 100.905 203.8 100.828C207.096 100.479 209.944 99.1987 212.667 96.8449C213.249 96.3413 214.568 94.9776 215.051 94.3804C216.482 92.6081 217.379 91.0158 218.007 89.1338C219.057 85.9882 218.977 82.5671 217.769 78.8781C217.08 76.7755 216.064 74.7039 214.621 72.4598C213.315 70.4285 212.463 69.3314 211.181 68.0323C209.499 66.3265 207.649 64.9085 205.228 63.4702C204.583 63.0871 202.954 62.1921 202.662 62.0603C202.544 62.0073 202.155 61.8195 201.797 61.6431C198.74 60.1382 194.331 58.5167 189.893 57.2652C181.8 54.9828 172.971 53.6188 163.275 53.1526C160.103 53.0002 154.424 52.952 151.603 53.0537Z" fill="black" stroke="black" stroke-width="2"/>
</g>
<defs>
<clipPath id="clip0_8_9">
<rect width="300" height="300" fill="white"/>
</clipPath>
</defs>
</svg>
