<svg width="1200" height="630" viewBox="0 0 1200 630" fill="none" xmlns="http://www.w3.org/2000/svg">
<g clip-path="url(#clip0_3_2)">
<rect width="1200" height="630" fill="#1C1C2B"/>
<path d="M1200 0H0V630H1200V0Z" fill="#1C1C2B"/>
<path d="M362.484 288.487V302.993H343.66C335.468 302.993 328.322 301.624 322.222 298.887C315.948 296.15 310.98 292.41 307.32 287.666C303.834 282.739 302.091 276.992 302.091 270.423C302.091 262.759 304.009 256.191 307.843 250.717C311.678 245.243 316.993 241.046 323.791 238.127C330.763 235.207 338.867 233.748 348.105 233.748C356.819 233.748 364.575 235.207 371.373 238.127C378.17 241.229 383.486 245.517 387.32 250.991C391.155 256.282 393.072 262.486 393.072 269.602H366.928C366.928 265.223 365.272 261.847 361.961 259.475C358.823 257.103 354.205 255.917 348.105 255.917C343.747 255.917 340.087 256.556 337.124 257.833C334.161 259.11 331.983 260.935 330.588 263.307C329.194 265.679 328.497 268.598 328.497 272.065C328.497 275.167 329.107 277.995 330.327 280.55C331.721 282.922 333.813 284.838 336.601 286.297C339.39 287.757 342.963 288.487 347.32 288.487H362.484ZM343.66 295.329H362.484V309.562H347.32C342.614 309.562 338.693 310.2 335.556 311.477C332.593 312.937 330.327 314.944 328.758 317.499C327.364 320.053 326.667 323.338 326.667 327.352C326.667 331.549 327.538 334.924 329.281 337.479C330.85 340.033 333.203 341.858 336.34 342.953C339.477 344.047 343.137 344.595 347.32 344.595C354.292 344.595 359.608 343.226 363.268 340.489C366.754 337.57 368.497 334.012 368.497 329.815H394.902C394.902 337.479 392.81 344.047 388.627 349.521C384.619 355.178 379.041 359.466 371.895 362.385C364.749 365.122 356.819 366.491 348.105 366.491C338.519 366.491 330.065 365.122 322.745 362.385C315.599 359.648 310.022 355.543 306.013 350.069C302.004 344.412 300 337.387 300 328.994C300 318.229 303.834 309.927 311.503 304.088C319.172 298.249 329.891 295.329 343.66 295.329ZM440.654 401.25H414.771V267.686H440.131V284.108H441.438C442.484 281.553 444.052 278.908 446.144 276.171C448.41 273.434 451.285 271.153 454.771 269.328C458.257 267.504 462.527 266.591 467.582 266.591C474.379 266.591 480.654 268.416 486.405 272.065C492.157 275.714 496.688 281.28 500 288.761C503.486 296.059 505.229 305.274 505.229 316.404C505.229 327.352 503.573 336.475 500.261 343.774C496.95 351.255 492.418 356.911 486.667 360.743C481.089 364.575 474.728 366.491 467.582 366.491C462.702 366.491 458.519 365.578 455.033 363.754C451.547 362.111 448.671 359.922 446.405 357.185C444.139 354.63 442.484 351.985 441.438 349.248H440.654V401.25ZM440.131 316.404C440.131 322.06 440.828 327.078 442.222 331.457C443.791 335.654 446.057 338.938 449.02 341.31C451.808 343.865 455.294 345.142 459.477 345.142C463.66 345.142 467.233 343.865 470.196 341.31C472.985 338.938 475.163 335.563 476.732 331.184C478.301 326.987 479.085 322.06 479.085 316.404C479.085 310.748 478.301 305.821 476.732 301.624C475.338 297.245 473.159 293.87 470.196 291.498C467.233 289.126 463.66 287.94 459.477 287.94C455.294 287.94 451.808 289.126 449.02 291.498C446.057 293.687 443.791 296.972 442.222 301.351C440.828 305.547 440.131 310.565 440.131 316.404ZM599.346 295.603L575.817 296.972C575.468 294.964 574.597 293.049 573.203 291.224C571.983 289.582 570.24 288.213 567.974 287.118C565.882 286.206 563.355 285.75 560.392 285.75C556.383 285.75 552.985 286.571 550.196 288.213C547.582 290.038 546.274 292.41 546.274 295.329C546.274 297.519 547.146 299.435 548.889 301.077C550.632 302.719 553.682 303.996 558.039 304.909L574.771 308.467C583.834 310.474 590.545 313.576 594.902 317.773C599.259 322.152 601.438 327.808 601.438 334.742C601.438 341.128 599.695 346.693 596.209 351.437C592.723 356.364 587.843 360.104 581.569 362.659C575.468 365.396 568.41 366.764 560.392 366.764C548.017 366.764 538.17 364.027 530.85 358.553C523.704 353.262 519.521 345.963 518.301 336.658L543.399 335.289C544.27 339.303 546.187 342.314 549.15 344.321C551.939 346.328 555.686 347.332 560.392 347.332C564.924 347.332 568.497 346.419 571.111 344.595C573.9 342.77 575.294 340.398 575.294 337.479C575.294 335.107 574.335 333.1 572.418 331.457C570.501 329.815 567.538 328.629 563.529 327.899L547.582 324.615C538.518 322.608 531.721 319.232 527.19 314.488C522.832 309.927 520.654 303.996 520.654 296.698C520.654 290.494 522.309 285.111 525.621 280.55C528.758 276.171 533.29 272.704 539.216 270.149C545.142 267.777 552.026 266.591 559.869 266.591C571.721 266.591 580.959 269.146 587.582 274.255C594.379 279.546 598.301 286.662 599.346 295.603ZM643.529 364.848H617.909V267.686H643.529V364.848ZM630.719 255.37C626.885 255.37 623.573 254.001 620.784 251.264C618.17 248.527 616.863 245.334 616.863 241.685C616.863 238.036 618.17 234.842 620.784 232.105C623.573 229.368 626.885 228 630.719 228C634.553 228 637.778 229.368 640.392 232.105C643.181 234.842 644.575 238.036 644.575 241.685C644.575 245.334 643.181 248.527 640.392 251.264C637.778 254.001 634.553 255.37 630.719 255.37ZM663.922 235.39H689.804V364.848H663.922V235.39ZM752.026 366.764C742.789 366.764 734.684 364.666 727.712 360.469C720.915 356.272 715.686 350.434 712.026 342.953C708.366 335.472 706.536 326.713 706.536 316.678C706.536 306.642 708.366 297.884 712.026 290.403C715.686 282.922 720.915 277.083 727.712 272.886C734.684 268.69 742.789 266.591 752.026 266.591C761.438 266.591 769.542 268.69 776.34 272.886C783.137 277.083 788.453 282.922 792.288 290.403C795.948 297.884 797.778 306.642 797.778 316.678C797.778 326.713 795.948 335.472 792.288 342.953C788.453 350.434 783.137 356.272 776.34 360.469C769.542 364.666 761.438 366.764 752.026 366.764ZM752.288 345.963C756.471 345.963 760.044 344.686 763.007 342.132C765.795 339.577 767.887 336.11 769.281 331.731C770.85 327.169 771.634 322.06 771.634 316.404C771.634 310.748 770.85 305.73 769.281 301.351C767.887 296.972 765.795 293.505 763.007 290.95C760.044 288.396 756.471 287.118 752.288 287.118C747.93 287.118 744.27 288.396 741.307 290.95C738.519 293.505 736.34 296.972 734.771 301.351C733.377 305.73 732.68 310.748 732.68 316.404C732.68 322.06 733.377 327.169 734.771 331.731C736.34 336.11 738.519 339.577 741.307 342.132C744.27 344.686 747.93 345.963 752.288 345.963ZM840.131 308.741V364.848H814.51V267.686H839.085V284.929H840.131C842.222 279.273 845.621 274.802 850.327 271.518C855.207 268.233 861.133 266.591 868.105 266.591C874.379 266.591 879.956 268.051 884.837 270.97C889.542 273.89 893.29 278.086 896.078 283.56C898.693 289.034 900 295.512 900 302.993V364.848H874.379V307.919C874.379 301.898 872.898 297.245 869.935 293.961C866.972 290.677 862.963 289.034 857.909 289.034C854.423 289.034 851.373 289.764 848.758 291.224C845.97 292.866 843.878 295.147 842.484 298.066C841.089 300.986 840.305 304.544 840.131 308.741Z" fill="#CBA6F7"/>
</g>
<defs>
<clipPath id="clip0_3_2">
<rect width="1200" height="630" fill="white"/>
</clipPath>
</defs>
</svg>
