<svg width="500" height="500" viewBox="0 0 500 500" fill="none" xmlns="http://www.w3.org/2000/svg">
<mask id="mask0_1_2" style="mask-type:luminance" maskUnits="userSpaceOnUse" x="55" y="0" width="393" height="500">
<mask id="path-1-inside-1_1_2" fill="white">
<path fill-rule="evenodd" clip-rule="evenodd" d="M254.196 0.138327C248.48 0.337232 240.577 0.827225 236.14 1.25786C233.188 1.54427 232.235 1.64192 230.121 1.87458C206.318 4.49302 184.112 10.1173 164.448 18.508C153.153 23.328 141.624 29.6799 132.014 36.378C118.741 45.6286 108.892 54.7876 101.205 65.0286C91.2194 78.3309 85.1864 93.1769 83.0709 109.652C82.4511 114.479 82.334 116.636 82.3319 123.259C82.3299 129.29 82.38 130.512 82.8028 134.732C84.6657 153.322 91.387 169.96 102.77 184.158C105.822 187.966 110.337 192.487 114.689 196.094C125.384 204.961 140.137 213.68 158.496 221.982C164.265 224.591 175.183 229.083 181.535 231.461C182.987 232.006 184.175 232.48 184.174 232.517C184.174 232.553 183.617 232.786 182.937 233.032C174.418 236.129 160.103 242.046 151.742 245.928C151.153 246.201 150.251 246.62 149.736 246.859C146.143 248.523 139.963 251.558 136.829 253.196C118.624 262.708 104.472 272.216 93.2256 282.487C89.6943 285.712 84.2869 291.36 82.2797 293.92C82.0837 294.17 81.2274 295.239 80.3765 296.297C76.3266 301.328 72.4963 306.896 69.0985 312.692C67.8652 314.797 64.6134 321.121 63.6796 323.231C56.7977 338.788 54.0052 354.728 55.3128 370.99C55.5197 373.563 55.812 376.225 56.0377 377.593C56.1104 378.033 56.2662 378.995 56.384 379.728C57.6834 387.82 60.5905 397.215 64.2282 405.075C72.7298 423.447 86.3635 440.243 105.932 456.453C113.743 462.923 122.612 468.902 131.612 473.765C133.359 474.709 140.2 478.121 141.911 478.902C158.346 486.407 176.781 491.907 197.151 495.381C204.223 496.588 211.316 497.545 217.949 498.187C219.127 498.3 220.691 498.451 221.427 498.522C222.162 498.593 223.547 498.713 224.503 498.789C225.459 498.865 226.573 498.956 226.978 498.992C228.136 499.096 233.851 499.436 237.009 499.589C248.288 500.137 263.452 500.137 274.326 499.59C306.251 497.983 334.145 492.469 359.86 482.678C381.854 474.303 403.371 461.638 418.37 448.238C426.993 440.533 433.64 432.685 438.433 424.547C440.787 420.549 443.279 415.043 444.577 410.967C447.933 400.437 448.417 389.018 445.937 378.916C443.785 370.153 439.641 362.727 433.225 356.133C425.557 348.251 416.637 343.417 406.272 341.526C402.71 340.875 400.309 340.667 396.374 340.667C392.908 340.667 391.112 340.823 388.231 341.378C381.94 342.589 375.301 345.607 369.294 349.988C365.632 352.657 361.15 356.761 359.478 358.976C357.244 361.933 354.255 367.511 351.539 373.791C349.236 379.118 347.932 382.442 343.851 393.402C342.634 396.669 339.918 403.412 338.29 407.209C330.537 425.282 323.382 437.072 316.123 443.736C305.274 453.693 292.834 459.967 277.87 463.023C265.294 465.592 249.541 465.6 235.568 463.042C219.919 460.179 205.773 453.825 193.783 444.273C187.473 439.247 180.992 432.57 176.39 426.352C166.911 413.548 160.546 397.943 157.427 379.861C155.308 367.577 154.595 352.322 155.56 339.907C157.695 312.435 168.135 289.876 186.45 273.16C188.835 270.984 189.737 270.207 191.6 268.725C205.369 257.768 221.884 251.237 240.62 249.339C245.634 248.831 247.569 248.743 253.594 248.75C259.802 248.757 263.451 248.911 270.647 249.47C272.729 249.632 278.99 250.209 280.678 250.395C285.836 250.961 290.019 251.476 296.831 252.385C301.039 252.946 303.821 253.259 308.9 253.746C310.882 253.935 318.667 253.927 321.587 253.731C330.359 253.147 336.592 251.901 341.603 249.733C343.801 248.782 346.674 246.985 348.398 245.481C350.192 243.915 351.602 241.59 352.254 239.12C352.563 237.947 352.606 237.53 352.606 235.652C352.606 233.779 352.562 233.357 352.257 232.2C351.567 229.591 350.109 227.248 347.819 225.069C344.888 222.28 342 220.708 337.524 219.462C328.861 217.051 314.291 216.51 297.666 217.979C290.665 218.598 286.485 219.047 279.542 219.923C266.173 221.613 258.794 222.191 248.779 222.335C235.219 222.529 224.943 221.151 214.605 217.753C203.183 214 193.8 208.253 185.484 199.918C172.18 186.586 164.404 168.342 162.047 144.939C161.17 136.227 161.04 125.609 161.712 117.523C163.832 92.006 172.517 71.8449 188.096 56.2735C195.126 49.2472 202.653 43.8309 211.328 39.5578C223.296 33.6628 235.654 30.5048 251.922 29.1835C254.86 28.9448 268.361 28.9442 270.848 29.1826C280.364 30.0945 286.934 31.3921 293.896 33.7346C300.772 36.0489 309.003 40.2867 313.247 43.698C315.624 45.6082 319.348 49.6456 322.094 53.289C328.127 61.2935 333.983 71.0114 341.672 85.7729C344.658 91.5071 346.344 94.4164 348.859 98.1795C359.123 113.532 371.033 121.767 385.139 123.267C387.004 123.464 391.644 123.467 393.566 123.269C402.365 122.368 409.97 119.069 417.239 113.002C418.795 111.704 422.317 108.19 423.604 106.651C427.426 102.083 429.822 97.9788 431.498 93.1285C434.301 85.0211 434.089 76.2039 430.862 66.6961C429.023 61.277 426.31 55.9378 422.458 50.1541C418.971 44.9188 416.694 42.0912 413.273 38.743C408.781 34.3467 403.84 30.6919 397.378 26.9851C395.656 25.9977 391.306 23.691 390.526 23.3512C390.212 23.2146 389.172 22.7307 388.216 22.2761C380.054 18.3974 368.282 14.2183 356.432 10.9927C334.822 5.11042 311.25 1.59483 285.36 0.393396C276.891 0.000388159 261.727 -0.123678 254.196 0.138327Z"/>
</mask>
<path fill-rule="evenodd" clip-rule="evenodd" d="M254.196 0.138327C248.48 0.337232 240.577 0.827225 236.14 1.25786C233.188 1.54427 232.235 1.64192 230.121 1.87458C206.318 4.49302 184.112 10.1173 164.448 18.508C153.153 23.328 141.624 29.6799 132.014 36.378C118.741 45.6286 108.892 54.7876 101.205 65.0286C91.2194 78.3309 85.1864 93.1769 83.0709 109.652C82.4511 114.479 82.334 116.636 82.3319 123.259C82.3299 129.29 82.38 130.512 82.8028 134.732C84.6657 153.322 91.387 169.96 102.77 184.158C105.822 187.966 110.337 192.487 114.689 196.094C125.384 204.961 140.137 213.68 158.496 221.982C164.265 224.591 175.183 229.083 181.535 231.461C182.987 232.006 184.175 232.48 184.174 232.517C184.174 232.553 183.617 232.786 182.937 233.032C174.418 236.129 160.103 242.046 151.742 245.928C151.153 246.201 150.251 246.62 149.736 246.859C146.143 248.523 139.963 251.558 136.829 253.196C118.624 262.708 104.472 272.216 93.2256 282.487C89.6943 285.712 84.2869 291.36 82.2797 293.92C82.0837 294.17 81.2274 295.239 80.3765 296.297C76.3266 301.328 72.4963 306.896 69.0985 312.692C67.8652 314.797 64.6134 321.121 63.6796 323.231C56.7977 338.788 54.0052 354.728 55.3128 370.99C55.5197 373.563 55.812 376.225 56.0377 377.593C56.1104 378.033 56.2662 378.995 56.384 379.728C57.6834 387.82 60.5905 397.215 64.2282 405.075C72.7298 423.447 86.3635 440.243 105.932 456.453C113.743 462.923 122.612 468.902 131.612 473.765C133.359 474.709 140.2 478.121 141.911 478.902C158.346 486.407 176.781 491.907 197.151 495.381C204.223 496.588 211.316 497.545 217.949 498.187C219.127 498.3 220.691 498.451 221.427 498.522C222.162 498.593 223.547 498.713 224.503 498.789C225.459 498.865 226.573 498.956 226.978 498.992C228.136 499.096 233.851 499.436 237.009 499.589C248.288 500.137 263.452 500.137 274.326 499.59C306.251 497.983 334.145 492.469 359.86 482.678C381.854 474.303 403.371 461.638 418.37 448.238C426.993 440.533 433.64 432.685 438.433 424.547C440.787 420.549 443.279 415.043 444.577 410.967C447.933 400.437 448.417 389.018 445.937 378.916C443.785 370.153 439.641 362.727 433.225 356.133C425.557 348.251 416.637 343.417 406.272 341.526C402.71 340.875 400.309 340.667 396.374 340.667C392.908 340.667 391.112 340.823 388.231 341.378C381.94 342.589 375.301 345.607 369.294 349.988C365.632 352.657 361.15 356.761 359.478 358.976C357.244 361.933 354.255 367.511 351.539 373.791C349.236 379.118 347.932 382.442 343.851 393.402C342.634 396.669 339.918 403.412 338.29 407.209C330.537 425.282 323.382 437.072 316.123 443.736C305.274 453.693 292.834 459.967 277.87 463.023C265.294 465.592 249.541 465.6 235.568 463.042C219.919 460.179 205.773 453.825 193.783 444.273C187.473 439.247 180.992 432.57 176.39 426.352C166.911 413.548 160.546 397.943 157.427 379.861C155.308 367.577 154.595 352.322 155.56 339.907C157.695 312.435 168.135 289.876 186.45 273.16C188.835 270.984 189.737 270.207 191.6 268.725C205.369 257.768 221.884 251.237 240.62 249.339C245.634 248.831 247.569 248.743 253.594 248.75C259.802 248.757 263.451 248.911 270.647 249.47C272.729 249.632 278.99 250.209 280.678 250.395C285.836 250.961 290.019 251.476 296.831 252.385C301.039 252.946 303.821 253.259 308.9 253.746C310.882 253.935 318.667 253.927 321.587 253.731C330.359 253.147 336.592 251.901 341.603 249.733C343.801 248.782 346.674 246.985 348.398 245.481C350.192 243.915 351.602 241.59 352.254 239.12C352.563 237.947 352.606 237.53 352.606 235.652C352.606 233.779 352.562 233.357 352.257 232.2C351.567 229.591 350.109 227.248 347.819 225.069C344.888 222.28 342 220.708 337.524 219.462C328.861 217.051 314.291 216.51 297.666 217.979C290.665 218.598 286.485 219.047 279.542 219.923C266.173 221.613 258.794 222.191 248.779 222.335C235.219 222.529 224.943 221.151 214.605 217.753C203.183 214 193.8 208.253 185.484 199.918C172.18 186.586 164.404 168.342 162.047 144.939C161.17 136.227 161.04 125.609 161.712 117.523C163.832 92.006 172.517 71.8449 188.096 56.2735C195.126 49.2472 202.653 43.8309 211.328 39.5578C223.296 33.6628 235.654 30.5048 251.922 29.1835C254.86 28.9448 268.361 28.9442 270.848 29.1826C280.364 30.0945 286.934 31.3921 293.896 33.7346C300.772 36.0489 309.003 40.2867 313.247 43.698C315.624 45.6082 319.348 49.6456 322.094 53.289C328.127 61.2935 333.983 71.0114 341.672 85.7729C344.658 91.5071 346.344 94.4164 348.859 98.1795C359.123 113.532 371.033 121.767 385.139 123.267C387.004 123.464 391.644 123.467 393.566 123.269C402.365 122.368 409.97 119.069 417.239 113.002C418.795 111.704 422.317 108.19 423.604 106.651C427.426 102.083 429.822 97.9788 431.498 93.1285C434.301 85.0211 434.089 76.2039 430.862 66.6961C429.023 61.277 426.31 55.9378 422.458 50.1541C418.971 44.9188 416.694 42.0912 413.273 38.743C408.781 34.3467 403.84 30.6919 397.378 26.9851C395.656 25.9977 391.306 23.691 390.526 23.3512C390.212 23.2146 389.172 22.7307 388.216 22.2761C380.054 18.3974 368.282 14.2183 356.432 10.9927C334.822 5.11042 311.25 1.59483 285.36 0.393396C276.891 0.000388159 261.727 -0.123678 254.196 0.138327Z" fill="white" stroke="white" stroke-width="2" mask="url(#path-1-inside-1_1_2)"/>
</mask>
<g mask="url(#mask0_1_2)">
<path fill-rule="evenodd" clip-rule="evenodd" d="M254.196 0.138327C248.48 0.337232 240.577 0.827225 236.14 1.25786C233.188 1.54427 232.235 1.64192 230.121 1.87458C206.318 4.49302 184.112 10.1173 164.448 18.508C153.153 23.328 141.624 29.6799 132.014 36.378C118.741 45.6286 108.892 54.7876 101.205 65.0286C91.2194 78.3309 85.1864 93.1769 83.0709 109.652C82.4511 114.479 82.334 116.636 82.3319 123.259C82.3299 129.29 82.38 130.512 82.8028 134.732C84.6657 153.322 91.387 169.96 102.77 184.158C105.822 187.966 110.337 192.487 114.689 196.094C125.384 204.961 140.137 213.68 158.496 221.982C164.265 224.591 175.183 229.083 181.535 231.461C182.987 232.006 184.175 232.48 184.174 232.517C184.174 232.553 183.617 232.786 182.937 233.032C174.418 236.129 160.103 242.046 151.742 245.928C151.153 246.201 150.251 246.62 149.736 246.859C146.143 248.523 139.963 251.558 136.829 253.196C118.624 262.708 104.472 272.216 93.2256 282.487C89.6943 285.712 84.2869 291.36 82.2797 293.92C82.0837 294.17 81.2274 295.239 80.3765 296.297C76.3266 301.328 72.4963 306.896 69.0985 312.692C67.8652 314.797 64.6134 321.121 63.6796 323.231C56.7977 338.788 54.0052 354.728 55.3128 370.99C55.5197 373.563 55.812 376.225 56.0377 377.593C56.1104 378.033 56.2662 378.995 56.384 379.728C57.6834 387.82 60.5905 397.215 64.2282 405.075C72.7298 423.447 86.3635 440.243 105.932 456.453C113.743 462.923 122.612 468.902 131.612 473.765C133.359 474.709 140.2 478.121 141.911 478.902C158.346 486.407 176.781 491.907 197.151 495.381C204.223 496.588 211.316 497.545 217.949 498.187C219.127 498.3 220.691 498.451 221.427 498.522C222.162 498.593 223.547 498.713 224.503 498.789C225.459 498.865 226.573 498.956 226.978 498.992C228.136 499.096 233.851 499.436 237.009 499.589C248.288 500.137 263.452 500.137 274.326 499.59C306.251 497.983 334.145 492.469 359.86 482.678C381.854 474.303 403.371 461.638 418.37 448.238C426.993 440.533 433.64 432.685 438.433 424.547C440.787 420.549 443.279 415.043 444.577 410.967C447.933 400.437 448.417 389.018 445.937 378.916C443.785 370.153 439.641 362.727 433.225 356.133C425.557 348.251 416.637 343.417 406.272 341.526C402.71 340.875 400.309 340.667 396.374 340.667C392.908 340.667 391.112 340.823 388.231 341.378C381.94 342.589 375.301 345.607 369.294 349.988C365.632 352.657 361.15 356.761 359.478 358.976C357.244 361.933 354.255 367.511 351.539 373.791C349.236 379.118 347.932 382.442 343.851 393.402C342.634 396.669 339.918 403.412 338.29 407.209C330.537 425.282 323.382 437.072 316.123 443.736C305.274 453.693 292.834 459.967 277.87 463.023C265.294 465.592 249.541 465.6 235.568 463.042C219.919 460.179 205.773 453.825 193.783 444.273C187.473 439.247 180.992 432.57 176.39 426.352C166.911 413.548 160.546 397.943 157.427 379.861C155.308 367.577 154.595 352.322 155.56 339.907C157.695 312.435 168.135 289.876 186.45 273.16C188.835 270.985 189.737 270.207 191.6 268.725C205.369 257.768 221.884 251.237 240.62 249.339C245.634 248.831 247.569 248.743 253.594 248.75C259.802 248.757 263.451 248.911 270.647 249.47C272.729 249.632 278.99 250.209 280.678 250.395C285.836 250.961 290.019 251.476 296.831 252.385C301.039 252.946 303.821 253.259 308.9 253.746C310.882 253.935 318.667 253.927 321.587 253.731C330.359 253.147 336.592 251.901 341.603 249.733C343.801 248.782 346.674 246.985 348.398 245.481C350.192 243.915 351.602 241.59 352.254 239.12C352.563 237.947 352.606 237.53 352.606 235.652C352.606 233.779 352.562 233.357 352.257 232.2C351.567 229.591 350.109 227.248 347.819 225.069C344.888 222.28 342 220.708 337.524 219.462C328.861 217.051 314.291 216.51 297.666 217.979C290.665 218.598 286.485 219.047 279.542 219.923C266.173 221.613 258.794 222.191 248.779 222.335C235.219 222.529 224.943 221.151 214.605 217.753C203.183 214 193.8 208.253 185.484 199.918C172.18 186.586 164.404 168.342 162.047 144.939C161.17 136.227 161.04 125.609 161.712 117.523C163.832 92.006 172.517 71.8449 188.096 56.2735C195.126 49.2472 202.653 43.8309 211.328 39.5578C223.296 33.6628 235.654 30.5048 251.922 29.1835C254.86 28.9448 268.361 28.9442 270.848 29.1826C280.364 30.0945 286.934 31.3921 293.896 33.7346C300.772 36.0489 309.003 40.2867 313.247 43.698C315.624 45.6082 319.348 49.6456 322.094 53.289C328.127 61.2935 333.983 71.0114 341.672 85.7729C344.658 91.5071 346.344 94.4164 348.859 98.1795C359.123 113.532 371.033 121.767 385.139 123.267C387.004 123.464 391.644 123.467 393.566 123.269C402.365 122.368 409.97 119.069 417.239 113.002C418.795 111.704 422.317 108.19 423.604 106.651C427.426 102.083 429.822 97.9788 431.498 93.1285C434.301 85.0211 434.089 76.2039 430.862 66.6961C429.023 61.277 426.31 55.9378 422.458 50.1541C418.971 44.9188 416.694 42.0912 413.273 38.743C408.781 34.3467 403.84 30.6919 397.378 26.9851C395.656 25.9977 391.306 23.691 390.526 23.3512C390.212 23.2146 389.172 22.7307 388.216 22.2761C380.054 18.3974 368.282 14.2183 356.432 10.9927C334.822 5.11042 311.25 1.59483 285.36 0.393396C276.891 0.000388145 261.727 -0.123678 254.196 0.138327Z" fill="#D1D5DB" stroke="#D1D5DB" stroke-width="2"/>
</g>
</svg>
